<svg xmlns="http://www.w3.org/2000/svg" viewBox="0 0 64 64" role="img" aria-label="Heart icon">
  <defs>
    <linearGradient id="heartGrad" x1="0" y1="0" x2="1" y2="1">
      <stop offset="0%" stop-color="#ff6b98" />
      <stop offset="100%" stop-color="#e11d48" />
    </linearGradient>
  </defs>
  <rect width="64" height="64" rx="14" fill="#0b0b0d" />
  <path
    d="M32 53C30.5 51.6 29.1 50.4 27.8 49.2C19.9 42.4 14 37.2 14 28.9C14 22.1 19.1 17 25.9 17C29.8 17 33.5 18.8 36 21.6C38.5 18.8 42.2 17 46.1 17C52.9 17 58 22.1 58 28.9C58 37.2 52.1 42.4 44.2 49.2C42.9 50.4 41.5 51.6 40 53L36 56.6L32 53Z"
    fill="url(#heartGrad)"
  />
  <circle cx="24" cy="23" r="2.4" fill="#ffd7e5" opacity="0.8" />
</svg>
